<svg width="41" height="41" viewBox="0 0 41 41" fill="none" xmlns="http://www.w3.org/2000/svg">
<g filter="url(#filter0_d_4_445)">
<path d="M37 16.5C37 25.6127 29.6127 33 20.5 33C11.3873 33 4 25.6127 4 16.5C4 7.3873 11.3873 0 20.5 0C29.6127 0 37 7.3873 37 16.5Z" fill="url(#paint0_linear_4_445)"/>
</g>
<path d="M20.1 21.74V12.26C20.1 11.36 19.72 11 18.76 11H16.34C15.38 11 15 11.36 15 12.26V21.74C15 22.64 15.38 23 16.34 23H18.76C19.72 23 20.1 22.64 20.1 21.74Z" fill="white"/>
<path d="M27 21.74V12.26C27 11.36 26.62 11 25.66 11H23.24C22.2867 11 21.9 11.36 21.9 12.26V21.74C21.9 22.64 22.28 23 23.24 23H25.66C26.62 23 27 22.64 27 21.74Z" fill="white"/>
<defs>
<filter id="filter0_d_4_445" x="0" y="0" width="41" height="41" filterUnits="userSpaceOnUse" color-interpolation-filters="sRGB">
<feFlood flood-opacity="0" result="BackgroundImageFix"/>
<feColorMatrix in="SourceAlpha" type="matrix" values="0 0 0 0 0 0 0 0 0 0 0 0 0 0 0 0 0 0 127 0" result="hardAlpha"/>
<feOffset dy="4"/>
<feGaussianBlur stdDeviation="2"/>
<feComposite in2="hardAlpha" operator="out"/>
<feColorMatrix type="matrix" values="0 0 0 0 0.976471 0 0 0 0 0.32549 0 0 0 0 0.407843 0 0 0 0.37 0"/>
<feBlend mode="normal" in2="BackgroundImageFix" result="effect1_dropShadow_4_445"/>
<feBlend mode="normal" in="SourceGraphic" in2="effect1_dropShadow_4_445" result="shape"/>
</filter>
<linearGradient id="paint0_linear_4_445" x1="20.5" y1="0" x2="20.5" y2="33" gradientUnits="userSpaceOnUse">
<stop stop-color="#DA2A5B"/>
<stop offset="1" stop-color="#FC5869"/>
</linearGradient>
</defs>
</svg>
